<svg height="1460" overflow="visible" preserveAspectRatio="xMidYMid meet" version="1.0" width="1024" xmlns:xlink="http://www.w3.org/1999/xlink" xmlns="http://www.w3.org/2000/svg" zoomAndPan="magnify"><g><polyline points="0.0,730.0,10.0,730.0" style="fill:none;stroke:black;stroke-width:2"></polyline><polyline points="103.52,690.0,10.0,690.0,10.0,1420.0,103.52,1420.0" style="fill:none;stroke:black;stroke-width:2"></polyline><polyline points="196.49,20.0,103.52,20.0,103.52,710.0,196.49,710.0" style="fill:none;stroke:black;stroke-width:2"></polyline><polyline points="196.49,10.0,196.49,10.0,196.49,30.0,196.49,30.0" style="fill:none;stroke:black;stroke-width:2"></polyline><text font-family="sans-serif" x="201" y="14">campus-problem</text><text font-family="sans-serif" x="201" y="34">campus-open</text><polyline points="288.42,670.0,196.49,670.0,196.49,1340.0,288.42,1340.0" style="fill:none;stroke:black;stroke-width:2"></polyline><polyline points="379.4,490.0,288.42,490.0,288.42,1120.0,379.4,1120.0" style="fill:none;stroke:black;stroke-width:2"></polyline><polyline points="470.21,200.0,379.4,200.0,379.4,650.0,470.21,650.0" style="fill:none;stroke:black;stroke-width:2"></polyline><polyline points="560.68,60.0,470.21,60.0,470.21,220.0,560.68,220.0" style="fill:none;stroke:black;stroke-width:2"></polyline><polyline points="560.68,50.0,560.68,50.0,560.68,70.0,560.68,70.0" style="fill:none;stroke:black;stroke-width:2"></polyline><text font-family="sans-serif" x="565" y="54">service-slow</text><text font-family="sans-serif" x="565" y="74">service-staff</text><polyline points="645.03,190.0,560.68,190.0,560.68,330.0,645.03,330.0" style="fill:none;stroke:black;stroke-width:2"></polyline><polyline points="728.76,150.0,645.03,150.0,645.03,260.0,728.76,260.0" style="fill:none;stroke:black;stroke-width:2"></polyline><polyline points="728.76,140.0,728.76,140.0,728.76,210.0,728.76,210.0" style="fill:none;stroke:black;stroke-width:2"></polyline><polyline points="728.76,120.0,728.76,120.0,728.76,180.0,728.76,180.0" style="fill:none;stroke:black;stroke-width:2"></polyline><polyline points="728.76,110.0,728.76,110.0,728.76,150.0,728.76,150.0" style="fill:none;stroke:black;stroke-width:2"></polyline><polyline points="728.76,100.0,728.76,100.0,728.76,130.0,728.76,130.0" style="fill:none;stroke:black;stroke-width:2"></polyline><polyline points="728.76,90.0,728.76,90.0,728.76,110.0,728.76,110.0" style="fill:none;stroke:black;stroke-width:2"></polyline><text font-family="sans-serif" x="733" y="94">assistance-desk</text><text font-family="sans-serif" x="733" y="114">assistance-faculty</text><text font-family="sans-serif" x="733" y="134">assistance-people</text><text font-family="sans-serif" x="733" y="154">assistance-semester</text><polyline points="728.76,170.0,728.76,170.0,728.76,190.0,728.76,190.0" style="fill:none;stroke:black;stroke-width:2"></polyline><text font-family="sans-serif" x="733" y="174">assistance-campus</text><text font-family="sans-serif" x="733" y="194">assistance-students</text><text font-family="sans-serif" x="733" y="214">assistance-helpful</text><polyline points="811.97,240.0,728.76,240.0,728.76,280.0,811.97,280.0" style="fill:none;stroke:black;stroke-width:2"></polyline><polyline points="884.0,230.0,811.97,230.0,811.97,250.0,884.0,250.0" style="fill:none;stroke:black;stroke-width:2"></polyline><text font-family="sans-serif" x="889" y="234">people-desk</text><text font-family="sans-serif" x="889" y="254">desk-problem</text><polyline points="811.97,270.0,811.97,270.0,811.97,290.0,811.97,290.0" style="fill:none;stroke:black;stroke-width:2"></polyline><text font-family="sans-serif" x="816" y="274">helpful-people</text><text font-family="sans-serif" x="816" y="294">helpful-classes</text><polyline points="645.03,320.0,645.03,320.0,645.03,350.0,645.03,350.0" style="fill:none;stroke:black;stroke-width:2"></polyline><polyline points="645.03,310.0,645.03,310.0,645.03,330.0,645.03,330.0" style="fill:none;stroke:black;stroke-width:2"></polyline><text font-family="sans-serif" x="650" y="314">slow-people</text><text font-family="sans-serif" x="650" y="334">slow-available</text><text font-family="sans-serif" x="650" y="354">slow-equipment</text><polyline points="558.6,550.0,470.21,550.0,470.21,840.0,558.6,840.0" style="fill:none;stroke:black;stroke-width:2"></polyline><polyline points="640.14,510.0,558.6,510.0,558.6,700.0,640.14,700.0" style="fill:none;stroke:black;stroke-width:2"></polyline><polyline points="721.37,410.0,640.14,410.0,640.14,560.0,721.37,560.0" style="fill:none;stroke:black;stroke-width:2"></polyline><polyline points="795.39,390.0,721.37,390.0,721.37,440.0,795.39,440.0" style="fill:none;stroke:black;stroke-width:2"></polyline><polyline points="868.73,380.0,795.39,380.0,795.39,410.0,868.73,410.0" style="fill:none;stroke:black;stroke-width:2"></polyline><polyline points="868.73,370.0,868.73,370.0,868.73,390.0,868.73,390.0" style="fill:none;stroke:black;stroke-width:2"></polyline><text font-family="sans-serif" x="873" y="374">difficult-equipment</text><text font-family="sans-serif" x="873" y="394">difficult-use</text><text font-family="sans-serif" x="873" y="414">equipment-use</text><polyline points="795.39,430.0,795.39,430.0,795.39,450.0,795.39,450.0" style="fill:none;stroke:black;stroke-width:2"></polyline><text font-family="sans-serif" x="800" y="434">classrooms-use</text><text font-family="sans-serif" x="800" y="454">classrooms-equipment</text><polyline points="795.3,500.0,721.37,500.0,721.37,600.0,795.3,600.0" style="fill:none;stroke:black;stroke-width:2"></polyline><polyline points="795.3,490.0,795.3,490.0,795.3,530.0,795.3,530.0" style="fill:none;stroke:black;stroke-width:2"></polyline><polyline points="795.3,480.0,795.3,480.0,795.3,510.0,795.3,510.0" style="fill:none;stroke:black;stroke-width:2"></polyline><polyline points="795.3,470.0,795.3,470.0,795.3,490.0,795.3,490.0" style="fill:none;stroke:black;stroke-width:2"></polyline><text font-family="sans-serif" x="800" y="474">needs-need</text><text font-family="sans-serif" x="800" y="494">needs-classrooms</text><text font-family="sans-serif" x="800" y="514">needs-equipment</text><text font-family="sans-serif" x="800" y="534">needs-lab</text><polyline points="795.3,570.0,795.3,570.0,795.3,630.0,795.3,630.0" style="fill:none;stroke:black;stroke-width:2"></polyline><polyline points="795.3,560.0,795.3,560.0,795.3,590.0,795.3,590.0" style="fill:none;stroke:black;stroke-width:2"></polyline><polyline points="795.3,550.0,795.3,550.0,795.3,570.0,795.3,570.0" style="fill:none;stroke:black;stroke-width:2"></polyline><text font-family="sans-serif" x="800" y="554">teaching-available</text><text font-family="sans-serif" x="800" y="574">teaching-equipment</text><text font-family="sans-serif" x="800" y="594">teaching-training</text><polyline points="795.3,620.0,795.3,620.0,795.3,650.0,795.3,650.0" style="fill:none;stroke:black;stroke-width:2"></polyline><polyline points="795.3,610.0,795.3,610.0,795.3,630.0,795.3,630.0" style="fill:none;stroke:black;stroke-width:2"></polyline><text font-family="sans-serif" x="800" y="614">teaching-classrooms</text><text font-family="sans-serif" x="800" y="634">teaching-needs</text><text font-family="sans-serif" x="800" y="654">teaching-difficult</text><polyline points="640.14,680.0,640.14,680.0,640.14,720.0,640.14,720.0" style="fill:none;stroke:black;stroke-width:2"></polyline><polyline points="640.14,670.0,640.14,670.0,640.14,690.0,640.14,690.0" style="fill:none;stroke:black;stroke-width:2"></polyline><text font-family="sans-serif" x="645" y="674">computers-computer</text><text font-family="sans-serif" x="645" y="694">computers-time</text><polyline points="640.14,710.0,640.14,710.0,640.14,730.0,640.14,730.0" style="fill:none;stroke:black;stroke-width:2"></polyline><text font-family="sans-serif" x="645" y="714">computers-classrooms</text><text font-family="sans-serif" x="645" y="734">computers-use</text><polyline points="646.77,780.0,558.6,780.0,558.6,880.0,646.77,880.0" style="fill:none;stroke:black;stroke-width:2"></polyline><polyline points="646.77,760.0,646.77,760.0,646.77,800.0,646.77,800.0" style="fill:none;stroke:black;stroke-width:2"></polyline><polyline points="646.77,750.0,646.77,750.0,646.77,770.0,646.77,770.0" style="fill:none;stroke:black;stroke-width:2"></polyline><text font-family="sans-serif" x="651" y="754">faculty-computers</text><text font-family="sans-serif" x="651" y="774">faculty-classrooms</text><polyline points="646.77,790.0,646.77,790.0,646.77,810.0,646.77,810.0" style="fill:none;stroke:black;stroke-width:2"></polyline><text font-family="sans-serif" x="651" y="794">faculty-use</text><text font-family="sans-serif" x="651" y="814">faculty-available</text><polyline points="646.77,870.0,646.77,870.0,646.77,930.0,646.77,930.0" style="fill:none;stroke:black;stroke-width:2"></polyline><polyline points="646.77,860.0,646.77,860.0,646.77,910.0,646.77,910.0" style="fill:none;stroke:black;stroke-width:2"></polyline><polyline points="646.77,850.0,646.77,850.0,646.77,890.0,646.77,890.0" style="fill:none;stroke:black;stroke-width:2"></polyline><polyline points="646.77,840.0,646.77,840.0,646.77,870.0,646.77,870.0" style="fill:none;stroke:black;stroke-width:2"></polyline><polyline points="646.77,830.0,646.77,830.0,646.77,850.0,646.77,850.0" style="fill:none;stroke:black;stroke-width:2"></polyline><text font-family="sans-serif" x="651" y="834">training-available</text><text font-family="sans-serif" x="651" y="854">training-faculty</text><text font-family="sans-serif" x="651" y="874">training-people</text><text font-family="sans-serif" x="651" y="894">training-slow</text><text font-family="sans-serif" x="651" y="914">training-classrooms</text><text font-family="sans-serif" x="651" y="934">training-difficult</text><polyline points="466.19,950.0,379.4,950.0,379.4,1130.0,466.19,1130.0" style="fill:none;stroke:black;stroke-width:2"></polyline><text font-family="sans-serif" x="471" y="954">class-semester</text><polyline points="550.7,1040.0,466.19,1040.0,466.19,1210.0,550.7,1210.0" style="fill:none;stroke:black;stroke-width:2"></polyline><polyline points="624.01,990.0,550.7,990.0,550.7,1070.0,624.01,1070.0" style="fill:none;stroke:black;stroke-width:2"></polyline><polyline points="688.39,980.0,624.01,980.0,624.01,1010.0,688.39,1010.0" style="fill:none;stroke:black;stroke-width:2"></polyline><polyline points="688.39,970.0,688.39,970.0,688.39,990.0,688.39,990.0" style="fill:none;stroke:black;stroke-width:2"></polyline><text font-family="sans-serif" x="693" y="974">semester-classrooms</text><text font-family="sans-serif" x="693" y="994">semester-students</text><text font-family="sans-serif" x="693" y="1014">students-computer</text><polyline points="695.64,1040.0,624.01,1040.0,624.01,1090.0,695.64,1090.0" style="fill:none;stroke:black;stroke-width:2"></polyline><polyline points="695.64,1030.0,695.64,1030.0,695.64,1050.0,695.64,1050.0" style="fill:none;stroke:black;stroke-width:2"></polyline><text font-family="sans-serif" x="700" y="1034">home-computer</text><text font-family="sans-serif" x="700" y="1054">home-students</text><polyline points="695.64,1080.0,695.64,1080.0,695.64,1110.0,695.64,1110.0" style="fill:none;stroke:black;stroke-width:2"></polyline><polyline points="695.64,1070.0,695.64,1070.0,695.64,1090.0,695.64,1090.0" style="fill:none;stroke:black;stroke-width:2"></polyline><text font-family="sans-serif" x="700" y="1074">lab-home</text><text font-family="sans-serif" x="700" y="1094">lab-students</text><text font-family="sans-serif" x="700" y="1114">lab-computer</text><polyline points="625.34,1180.0,550.7,1180.0,550.7,1270.0,625.34,1270.0" style="fill:none;stroke:black;stroke-width:2"></polyline><polyline points="625.34,1150.0,625.34,1150.0,625.34,1210.0,625.34,1210.0" style="fill:none;stroke:black;stroke-width:2"></polyline><polyline points="625.34,1140.0,625.34,1140.0,625.34,1170.0,625.34,1170.0" style="fill:none;stroke:black;stroke-width:2"></polyline><polyline points="625.34,1130.0,625.34,1130.0,625.34,1150.0,625.34,1150.0" style="fill:none;stroke:black;stroke-width:2"></polyline><text font-family="sans-serif" x="630" y="1134">classes-computer</text><text font-family="sans-serif" x="630" y="1154">classes-home</text><text font-family="sans-serif" x="630" y="1174">classes-available</text><polyline points="625.34,1200.0,625.34,1200.0,625.34,1230.0,625.34,1230.0" style="fill:none;stroke:black;stroke-width:2"></polyline><polyline points="625.34,1190.0,625.34,1190.0,625.34,1210.0,625.34,1210.0" style="fill:none;stroke:black;stroke-width:2"></polyline><text font-family="sans-serif" x="630" y="1194">classes-time</text><text font-family="sans-serif" x="630" y="1214">classes-open</text><text font-family="sans-serif" x="630" y="1234">classes-use</text><polyline points="625.34,1260.0,625.34,1260.0,625.34,1290.0,625.34,1290.0" style="fill:none;stroke:black;stroke-width:2"></polyline><polyline points="625.34,1250.0,625.34,1250.0,625.34,1270.0,625.34,1270.0" style="fill:none;stroke:black;stroke-width:2"></polyline><text font-family="sans-serif" x="630" y="1254">open-students</text><text font-family="sans-serif" x="630" y="1274">open-computer</text><text font-family="sans-serif" x="630" y="1294">open-lab</text><polyline points="288.42,1330.0,288.42,1330.0,288.42,1370.0,288.42,1370.0" style="fill:none;stroke:black;stroke-width:2"></polyline><polyline points="288.42,1320.0,288.42,1320.0,288.42,1350.0,288.42,1350.0" style="fill:none;stroke:black;stroke-width:2"></polyline><polyline points="288.42,1310.0,288.42,1310.0,288.42,1330.0,288.42,1330.0" style="fill:none;stroke:black;stroke-width:2"></polyline><text font-family="sans-serif" x="293" y="1314">services-staff</text><text font-family="sans-serif" x="293" y="1334">services-training</text><text font-family="sans-serif" x="293" y="1354">services-faculty</text><text font-family="sans-serif" x="293" y="1374">services-available</text><polyline points="103.52,1410.0,103.52,1410.0,103.52,1450.0,103.52,1450.0" style="fill:none;stroke:black;stroke-width:2"></polyline><polyline points="103.52,1400.0,103.52,1400.0,103.52,1430.0,103.52,1430.0" style="fill:none;stroke:black;stroke-width:2"></polyline><polyline points="103.52,1390.0,103.52,1390.0,103.52,1410.0,103.52,1410.0" style="fill:none;stroke:black;stroke-width:2"></polyline><text font-family="sans-serif" x="108" y="1394">information-home</text><text font-family="sans-serif" x="108" y="1414">information-difficult</text><text font-family="sans-serif" x="108" y="1434">information-University</text><text font-family="sans-serif" x="108" y="1454">information-campus</text></g></svg>