<svg height="1460" overflow="visible" preserveAspectRatio="xMidYMid meet" version="1.0" width="1024" xmlns:xlink="http://www.w3.org/1999/xlink" xmlns="http://www.w3.org/2000/svg" zoomAndPan="magnify"><g><polyline points="0.0,730.0,10.0,730.0" style="fill:none;stroke:black;stroke-width:2"></polyline><polyline points="150.25,350.0,10.0,350.0,10.0,1080.0,150.25,1080.0" style="fill:none;stroke:black;stroke-width:2"></polyline><polyline points="288.63,210.0,150.25,210.0,150.25,560.0,288.63,560.0" style="fill:none;stroke:black;stroke-width:2"></polyline><polyline points="426.16,150.0,288.63,150.0,288.63,360.0,426.16,360.0" style="fill:none;stroke:black;stroke-width:2"></polyline><polyline points="558.88,110.0,426.16,110.0,426.16,260.0,558.88,260.0" style="fill:none;stroke:black;stroke-width:2"></polyline><polyline points="679.92,90.0,558.88,90.0,558.88,200.0,679.92,200.0" style="fill:none;stroke:black;stroke-width:2"></polyline><polyline points="792.49,70.0,679.92,70.0,679.92,160.0,792.49,160.0" style="fill:none;stroke:black;stroke-width:2"></polyline><polyline points="792.49,60.0,792.49,60.0,792.49,130.0,792.49,130.0" style="fill:none;stroke:black;stroke-width:2"></polyline><polyline points="792.49,20.0,792.49,20.0,792.49,80.0,792.49,80.0" style="fill:none;stroke:black;stroke-width:2"></polyline><polyline points="792.49,10.0,792.49,10.0,792.49,30.0,792.49,30.0" style="fill:none;stroke:black;stroke-width:2"></polyline><text font-family="sans-serif" x="797" y="14">assistance-campus</text><text font-family="sans-serif" x="797" y="34">assistance-students</text><polyline points="792.49,70.0,792.49,70.0,792.49,110.0,792.49,110.0" style="fill:none;stroke:black;stroke-width:2"></polyline><polyline points="792.49,60.0,792.49,60.0,792.49,90.0,792.49,90.0" style="fill:none;stroke:black;stroke-width:2"></polyline><polyline points="792.49,50.0,792.49,50.0,792.49,70.0,792.49,70.0" style="fill:none;stroke:black;stroke-width:2"></polyline><text font-family="sans-serif" x="797" y="54">assistance-desk</text><text font-family="sans-serif" x="797" y="74">assistance-faculty</text><text font-family="sans-serif" x="797" y="94">assistance-people</text><text font-family="sans-serif" x="797" y="114">assistance-semester</text><text font-family="sans-serif" x="797" y="134">assistance-helpful</text><polyline points="884.0,150.0,792.49,150.0,792.49,170.0,884.0,170.0" style="fill:none;stroke:black;stroke-width:2"></polyline><text font-family="sans-serif" x="889" y="154">people-desk</text><text font-family="sans-serif" x="889" y="174">desk-problem</text><polyline points="679.92,190.0,679.92,190.0,679.92,210.0,679.92,210.0" style="fill:none;stroke:black;stroke-width:2"></polyline><text font-family="sans-serif" x="684" y="194">helpful-people</text><text font-family="sans-serif" x="684" y="214">helpful-classes</text><polyline points="678.2,230.0,558.88,230.0,558.88,270.0,678.2,270.0" style="fill:none;stroke:black;stroke-width:2"></polyline><text font-family="sans-serif" x="683" y="234">class-semester</text><polyline points="760.0,260.0,678.2,260.0,678.2,290.0,760.0,290.0" style="fill:none;stroke:black;stroke-width:2"></polyline><polyline points="760.0,250.0,760.0,250.0,760.0,270.0,760.0,270.0" style="fill:none;stroke:black;stroke-width:2"></polyline><text font-family="sans-serif" x="764" y="254">semester-classrooms</text><text font-family="sans-serif" x="764" y="274">semester-students</text><text font-family="sans-serif" x="764" y="294">students-computer</text><polyline points="544.98,320.0,426.16,320.0,426.16,380.0,544.98,380.0" style="fill:none;stroke:black;stroke-width:2"></polyline><polyline points="544.98,310.0,544.98,310.0,544.98,330.0,544.98,330.0" style="fill:none;stroke:black;stroke-width:2"></polyline><text font-family="sans-serif" x="549" y="314">campus-problem</text><text font-family="sans-serif" x="549" y="334">campus-open</text><polyline points="544.98,370.0,544.98,370.0,544.98,410.0,544.98,410.0" style="fill:none;stroke:black;stroke-width:2"></polyline><polyline points="544.98,360.0,544.98,360.0,544.98,390.0,544.98,390.0" style="fill:none;stroke:black;stroke-width:2"></polyline><polyline points="544.98,350.0,544.98,350.0,544.98,370.0,544.98,370.0" style="fill:none;stroke:black;stroke-width:2"></polyline><text font-family="sans-serif" x="549" y="354">information-home</text><text font-family="sans-serif" x="549" y="374">information-difficult</text><text font-family="sans-serif" x="549" y="394">information-University</text><text font-family="sans-serif" x="549" y="414">information-campus</text><polyline points="414.14,470.0,288.63,470.0,288.63,610.0,414.14,610.0" style="fill:none;stroke:black;stroke-width:2"></polyline><polyline points="505.14,440.0,414.14,440.0,414.14,490.0,505.14,490.0" style="fill:none;stroke:black;stroke-width:2"></polyline><polyline points="505.14,430.0,505.14,430.0,505.14,450.0,505.14,450.0" style="fill:none;stroke:black;stroke-width:2"></polyline><text font-family="sans-serif" x="510" y="434">home-computer</text><text font-family="sans-serif" x="510" y="454">home-students</text><polyline points="505.14,480.0,505.14,480.0,505.14,510.0,505.14,510.0" style="fill:none;stroke:black;stroke-width:2"></polyline><polyline points="505.14,470.0,505.14,470.0,505.14,490.0,505.14,490.0" style="fill:none;stroke:black;stroke-width:2"></polyline><text font-family="sans-serif" x="510" y="474">lab-home</text><text font-family="sans-serif" x="510" y="494">lab-students</text><text font-family="sans-serif" x="510" y="514">lab-computer</text><polyline points="508.96,580.0,414.14,580.0,414.14,670.0,508.96,670.0" style="fill:none;stroke:black;stroke-width:2"></polyline><polyline points="508.96,550.0,508.96,550.0,508.96,610.0,508.96,610.0" style="fill:none;stroke:black;stroke-width:2"></polyline><polyline points="508.96,530.0,508.96,530.0,508.96,560.0,508.96,560.0" style="fill:none;stroke:black;stroke-width:2"></polyline><text font-family="sans-serif" x="513" y="534">classes-use</text><polyline points="508.96,550.0,508.96,550.0,508.96,570.0,508.96,570.0" style="fill:none;stroke:black;stroke-width:2"></polyline><text font-family="sans-serif" x="513" y="554">classes-computer</text><text font-family="sans-serif" x="513" y="574">classes-home</text><polyline points="508.96,600.0,508.96,600.0,508.96,630.0,508.96,630.0" style="fill:none;stroke:black;stroke-width:2"></polyline><polyline points="508.96,590.0,508.96,590.0,508.96,610.0,508.96,610.0" style="fill:none;stroke:black;stroke-width:2"></polyline><text font-family="sans-serif" x="513" y="594">classes-available</text><text font-family="sans-serif" x="513" y="614">classes-time</text><text font-family="sans-serif" x="513" y="634">classes-open</text><polyline points="508.96,650.0,508.96,650.0,508.96,680.0,508.96,680.0" style="fill:none;stroke:black;stroke-width:2"></polyline><text font-family="sans-serif" x="513" y="654">open-lab</text><polyline points="508.96,670.0,508.96,670.0,508.96,690.0,508.96,690.0" style="fill:none;stroke:black;stroke-width:2"></polyline><text font-family="sans-serif" x="513" y="674">open-students</text><text font-family="sans-serif" x="513" y="694">open-computer</text><polyline points="287.66,750.0,150.25,750.0,150.25,1130.0,287.66,1130.0" style="fill:none;stroke:black;stroke-width:2"></polyline><polyline points="402.6,720.0,287.66,720.0,287.66,770.0,402.6,770.0" style="fill:none;stroke:black;stroke-width:2"></polyline><polyline points="402.6,710.0,402.6,710.0,402.6,730.0,402.6,730.0" style="fill:none;stroke:black;stroke-width:2"></polyline><text font-family="sans-serif" x="407" y="714">service-slow</text><text font-family="sans-serif" x="407" y="734">service-staff</text><polyline points="402.6,760.0,402.6,760.0,402.6,790.0,402.6,790.0" style="fill:none;stroke:black;stroke-width:2"></polyline><polyline points="402.6,750.0,402.6,750.0,402.6,770.0,402.6,770.0" style="fill:none;stroke:black;stroke-width:2"></polyline><text font-family="sans-serif" x="407" y="754">slow-people</text><text font-family="sans-serif" x="407" y="774">slow-available</text><text font-family="sans-serif" x="407" y="794">slow-equipment</text><polyline points="419.61,990.0,287.66,990.0,287.66,1320.0,419.61,1320.0" style="fill:none;stroke:black;stroke-width:2"></polyline><polyline points="550.5,930.0,419.61,930.0,419.61,1120.0,550.5,1120.0" style="fill:none;stroke:black;stroke-width:2"></polyline><polyline points="668.53,900.0,550.5,900.0,550.5,1030.0,668.53,1030.0" style="fill:none;stroke:black;stroke-width:2"></polyline><polyline points="762.46,840.0,668.53,840.0,668.53,940.0,762.46,940.0" style="fill:none;stroke:black;stroke-width:2"></polyline><polyline points="762.46,830.0,762.46,830.0,762.46,870.0,762.46,870.0" style="fill:none;stroke:black;stroke-width:2"></polyline><polyline points="762.46,820.0,762.46,820.0,762.46,850.0,762.46,850.0" style="fill:none;stroke:black;stroke-width:2"></polyline><polyline points="762.46,810.0,762.46,810.0,762.46,830.0,762.46,830.0" style="fill:none;stroke:black;stroke-width:2"></polyline><text font-family="sans-serif" x="767" y="814">needs-need</text><text font-family="sans-serif" x="767" y="834">needs-classrooms</text><text font-family="sans-serif" x="767" y="854">needs-equipment</text><text font-family="sans-serif" x="767" y="874">needs-lab</text><polyline points="762.46,890.0,762.46,890.0,762.46,950.0,762.46,950.0" style="fill:none;stroke:black;stroke-width:2"></polyline><text font-family="sans-serif" x="767" y="894">teaching-training</text><polyline points="762.46,910.0,762.46,910.0,762.46,960.0,762.46,960.0" style="fill:none;stroke:black;stroke-width:2"></polyline><text font-family="sans-serif" x="767" y="914">teaching-difficult</text><polyline points="762.46,950.0,762.46,950.0,762.46,990.0,762.46,990.0" style="fill:none;stroke:black;stroke-width:2"></polyline><polyline points="762.46,930.0,762.46,930.0,762.46,960.0,762.46,960.0" style="fill:none;stroke:black;stroke-width:2"></polyline><text font-family="sans-serif" x="767" y="934">teaching-classrooms</text><polyline points="762.46,950.0,762.46,950.0,762.46,970.0,762.46,970.0" style="fill:none;stroke:black;stroke-width:2"></polyline><text font-family="sans-serif" x="767" y="954">teaching-available</text><text font-family="sans-serif" x="767" y="974">teaching-equipment</text><text font-family="sans-serif" x="767" y="994">teaching-needs</text><polyline points="761.7,1010.0,668.53,1010.0,668.53,1040.0,761.7,1040.0" style="fill:none;stroke:black;stroke-width:2"></polyline><text font-family="sans-serif" x="766" y="1014">equipment-use</text><polyline points="761.7,1030.0,761.7,1030.0,761.7,1050.0,761.7,1050.0" style="fill:none;stroke:black;stroke-width:2"></polyline><text font-family="sans-serif" x="766" y="1034">difficult-equipment</text><text font-family="sans-serif" x="766" y="1054">difficult-use</text><polyline points="654.1,1100.0,550.5,1100.0,550.5,1160.0,654.1,1160.0" style="fill:none;stroke:black;stroke-width:2"></polyline><polyline points="654.1,1080.0,654.1,1080.0,654.1,1120.0,654.1,1120.0" style="fill:none;stroke:black;stroke-width:2"></polyline><polyline points="654.1,1070.0,654.1,1070.0,654.1,1090.0,654.1,1090.0" style="fill:none;stroke:black;stroke-width:2"></polyline><text font-family="sans-serif" x="659" y="1074">computers-classrooms</text><text font-family="sans-serif" x="659" y="1094">computers-use</text><polyline points="654.1,1110.0,654.1,1110.0,654.1,1130.0,654.1,1130.0" style="fill:none;stroke:black;stroke-width:2"></polyline><text font-family="sans-serif" x="659" y="1114">computers-computer</text><text font-family="sans-serif" x="659" y="1134">computers-time</text><polyline points="654.1,1150.0,654.1,1150.0,654.1,1170.0,654.1,1170.0" style="fill:none;stroke:black;stroke-width:2"></polyline><text font-family="sans-serif" x="659" y="1154">classrooms-use</text><text font-family="sans-serif" x="659" y="1174">classrooms-equipment</text><polyline points="536.43,1220.0,419.61,1220.0,419.61,1360.0,536.43,1360.0" style="fill:none;stroke:black;stroke-width:2"></polyline><polyline points="536.43,1200.0,536.43,1200.0,536.43,1240.0,536.43,1240.0" style="fill:none;stroke:black;stroke-width:2"></polyline><polyline points="536.43,1190.0,536.43,1190.0,536.43,1210.0,536.43,1210.0" style="fill:none;stroke:black;stroke-width:2"></polyline><text font-family="sans-serif" x="541" y="1194">services-staff</text><text font-family="sans-serif" x="541" y="1214">services-training</text><polyline points="536.43,1230.0,536.43,1230.0,536.43,1250.0,536.43,1250.0" style="fill:none;stroke:black;stroke-width:2"></polyline><text font-family="sans-serif" x="541" y="1234">services-faculty</text><text font-family="sans-serif" x="541" y="1254">services-available</text><polyline points="648.44,1320.0,536.43,1320.0,536.43,1420.0,648.44,1420.0" style="fill:none;stroke:black;stroke-width:2"></polyline><polyline points="648.44,1310.0,648.44,1310.0,648.44,1370.0,648.44,1370.0" style="fill:none;stroke:black;stroke-width:2"></polyline><polyline points="648.44,1300.0,648.44,1300.0,648.44,1350.0,648.44,1350.0" style="fill:none;stroke:black;stroke-width:2"></polyline><polyline points="648.44,1280.0,648.44,1280.0,648.44,1320.0,648.44,1320.0" style="fill:none;stroke:black;stroke-width:2"></polyline><polyline points="648.44,1270.0,648.44,1270.0,648.44,1290.0,648.44,1290.0" style="fill:none;stroke:black;stroke-width:2"></polyline><text font-family="sans-serif" x="653" y="1274">training-people</text><text font-family="sans-serif" x="653" y="1294">training-slow</text><polyline points="648.44,1310.0,648.44,1310.0,648.44,1330.0,648.44,1330.0" style="fill:none;stroke:black;stroke-width:2"></polyline><text font-family="sans-serif" x="653" y="1314">training-available</text><text font-family="sans-serif" x="653" y="1334">training-faculty</text><text font-family="sans-serif" x="653" y="1354">training-classrooms</text><text font-family="sans-serif" x="653" y="1374">training-difficult</text><polyline points="648.44,1410.0,648.44,1410.0,648.44,1450.0,648.44,1450.0" style="fill:none;stroke:black;stroke-width:2"></polyline><polyline points="648.44,1400.0,648.44,1400.0,648.44,1430.0,648.44,1430.0" style="fill:none;stroke:black;stroke-width:2"></polyline><polyline points="648.44,1390.0,648.44,1390.0,648.44,1410.0,648.44,1410.0" style="fill:none;stroke:black;stroke-width:2"></polyline><text font-family="sans-serif" x="653" y="1394">faculty-use</text><text font-family="sans-serif" x="653" y="1414">faculty-available</text><text font-family="sans-serif" x="653" y="1434">faculty-computers</text><text font-family="sans-serif" x="653" y="1454">faculty-classrooms</text></g></svg>